<?xml version="1.0" ?>
<!DOCTYPE svg PUBLIC '-//W3C//DTD SVG 1.1//EN' 'http://www.w3.org/Graphics/SVG/1.1/DTD/svg11.dtd'><svg
    enable-background="new 0 0 100 100" height="100px" id="Layer_1" version="1.1" viewBox="0 0 100 100" width="100px"
    xml:space="preserve" xmlns="http://www.w3.org/2000/svg" xmlns:xlink="http://www.w3.org/1999/xlink">
    <g>
        <circle cx="50" cy="50" fill="#C5232D" r="45" />
        <path
            d="M50,29.686c-11.217,0-20.315,9.095-20.315,20.315c0,8.316,5.002,15.464,12.163,18.605   c-0.059-1.417-0.011-3.123,0.352-4.666c0.392-1.648,2.613-11.068,2.613-11.068s-0.648-1.297-0.648-3.215   c0-3.01,1.747-5.258,3.919-5.258c1.845,0,2.738,1.388,2.738,3.051c0,1.856-1.186,4.634-1.793,7.207   c-0.508,2.158,1.079,3.913,3.206,3.913c3.849,0,6.439-4.942,6.439-10.8c0-4.451-2.996-7.783-8.45-7.783   c-6.161,0-10.002,4.594-10.002,9.726c0,1.772,0.521,3.02,1.34,3.984c0.376,0.447,0.426,0.624,0.29,1.135   c-0.094,0.37-0.32,1.273-0.414,1.628c-0.136,0.514-0.552,0.7-1.014,0.509c-2.841-1.159-4.162-4.267-4.162-7.761   c0-5.77,4.866-12.693,14.518-12.693c7.757,0,12.862,5.617,12.862,11.639c0,7.969-4.43,13.923-10.963,13.923   c-2.191,0-4.254-1.185-4.962-2.53c0,0-1.182,4.68-1.43,5.583c-0.43,1.564-1.271,3.131-2.043,4.351   c1.827,0.54,3.757,0.833,5.756,0.833c11.219,0,20.314-9.095,20.314-20.313C70.314,38.78,61.219,29.686,50,29.686z"
            fill="#FFFFFF" id="Pinterest_1_" />
    </g>
</svg>