<svg xmlns="http://www.w3.org/2000/svg">
    <symbol id="chrome" viewBox="0 0 48 48"><path fill="#4caf50" d="M44,24c0,11.044-8.956,20-20,20S4,35.044,4,24S12.956,4,24,4S44,12.956,44,24z"/><path fill="#ffc107" d="M24,4v20l8,4l-8.843,16c0.317,0,0.526,0,0.843,0c11.053,0,20-8.947,20-20S35.053,4,24,4z"/><path fill="#4caf50" d="M44,24c0,11.044-8.956,20-20,20S4,35.044,4,24S12.956,4,24,4S44,12.956,44,24z"/><path fill="#ffc107" d="M24,4v20l8,4l-8.843,16c0.317,0,0.526,0,0.843,0c11.053,0,20-8.947,20-20S35.053,4,24,4z"/><path fill="#f44336" d="M41.84,15H24v13l-3-1L7.16,13.26H7.14C10.68,7.69,16.91,4,24,4C31.8,4,38.55,8.48,41.84,15z"/><path fill="#dd2c00" d="M7.158,13.264l8.843,14.862L21,27L7.158,13.264z"/><path fill="#558b2f" d="M23.157,44l8.934-16.059L28,25L23.157,44z"/><path fill="#f9a825" d="M41.865,15H24l-1.579,4.58L41.865,15z"/><path fill="#fff" d="M33,24c0,4.969-4.031,9-9,9s-9-4.031-9-9s4.031-9,9-9S33,19.031,33,24z"/><path fill="#2196f3" d="M31,24c0,3.867-3.133,7-7,7s-7-3.133-7-7s3.133-7,7-7S31,20.133,31,24z"/></symbol>
    <symbol id="firefox" viewBox="0 0 48 48" ><path fill="#01579B" d="M24 5A19 19 0 1 0 24 43A19 19 0 1 0 24 5Z"/><path fill="#0277BD" d="M34,20.8c0-0.6,0-2.9-1.5-4.7c-0.1-0.1-0.2-0.3-0.2-0.4c-0.1-0.1-0.1-0.2-0.2-0.4L31.9,15l-0.2-0.3c-0.2-0.3-0.3-0.5-0.3-0.5c-0.4-0.6-0.5-1.4-0.1-2.1c0.1-0.2,0.3-0.4,0.4-0.6c-0.1-0.1-0.2-0.2-0.3-0.2c0,0,0,0-0.1,0c-0.3-0.2-0.6-0.4-0.8-0.6l-0.7-0.5l0,0C29.3,9.9,29,9.8,29,9.7c-0.7-0.4-1.1-1.1-1-1.9c0.1-0.8,0.6-1.5,1.4-1.7c0.1,0,0.3-0.1,0.5-0.1c0,0,0,0-0.1-0.1C28,5.3,26,5,24,5C16.6,5,10.1,9.3,7,15.5c0,0.2,0,0.3,0,0.5c0,7.2,6.3,13,14,13C26.9,29,31.9,25.6,34,20.8z"/><path fill="#FFF176" d="M30,8c0,0,0.3-0.1,0.9-0.1c0.3,0,0.6,0,1,0c0.4,0,0.8,0.1,1.3,0.2c0.5,0.1,1,0.3,1.5,0.5c0.5,0.2,1.1,0.5,1.6,0.9c0.5,0.3,1,0.8,1.5,1.2c0.5,0.4,0.9,1,1.3,1.5c0.3,0.6,0.7,1.1,1,1.7c0.3,0.6,0.5,1.2,0.7,1.8c0.2,0.6,0.3,1.2,0.4,1.7c0.1,0.6,0.1,1.1,0.1,1.5c0,0.2,0,0.5,0,0.7c0,0.2,0,0.4-0.1,0.6c0,0.4-0.1,0.7-0.1,1C41.1,21.7,41,22,41,22s-0.2-0.3-0.4-0.8c-0.1-0.2-0.3-0.5-0.4-0.9c-0.1-0.3-0.3-0.7-0.5-1.1c-0.2-0.4-0.4-0.8-0.6-1.3c-0.2-0.4-0.5-0.9-0.7-1.4c-0.2-0.5-0.5-0.9-0.8-1.4c-0.3-0.5-0.6-0.9-0.9-1.3c-0.3-0.4-0.6-0.9-1-1.2c-0.4-0.4-0.7-0.8-1.1-1.1c-0.3-0.4-0.7-0.7-1.1-1c-0.4-0.3-0.7-0.6-1.1-0.8c-0.3-0.3-0.7-0.5-1-0.7c-0.3-0.2-0.6-0.4-0.8-0.5C30.3,8.2,30,8,30,8z"/><path fill="#FDD835" d="M43.1,17.6c-0.3-2.2-1.2-4.2-2.2-5.6c-0.5-0.7-1-1.2-1.3-1.5C39.2,10.2,39,10,39,10s0,0.3,0.1,0.8c0.1,0.5,0.1,1.1,0.2,1.9c0.1,0.4,0.1,0.8,0.2,1.2c-0.4-0.6-0.9-1.2-1.4-1.6c-0.5-0.5-1.1-0.8-1.4-1C36.2,11.1,36,11,36,11s0.1,0.2,0.2,0.6c0.1,0.4,0.3,0.9,0.5,1.6c0.2,0.7,0.5,1.6,0.8,2.5c-0.6-0.7-1.2-1.3-1.8-1.7c-0.7-0.4-1.3-0.7-1.8-0.8C33.3,13,33,13,33,13s0.2,0.2,0.4,0.6c0.1,0.2,0.3,0.4,0.4,0.7c0.2,0.3,0.3,0.6,0.5,0.9c0.3,0.6,0.7,1.3,1,2.1c0.2,0.4,0.3,0.8,0.5,1.2c0.1,0.4,0.4,0.8,0.5,1.3c0.2,0.4,0.3,0.8,0.5,1.3c0.1,0.4,0.3,0.8,0.4,1.3c0.1,0.4,0.3,0.8,0.4,1.2c0.1,0.4,0.2,0.8,0.4,1.1c0.3,0.7,0.5,1.3,0.7,1.7C38.9,26.8,39,27,39,27s0.1-0.2,0.3-0.7c0.1-0.2,0.2-0.5,0.2-0.8c0.1-0.3,0.2-0.7,0.2-1.1c0-0.3,0.1-0.6,0.1-0.9C39.9,23.8,40,24,40,24s0.1-0.2,0.3-0.6c0.1-0.2,0.2-0.4,0.3-0.7c0,0,0-0.1,0-0.1c0,0.2,0,0.5,0.1,0.7c0,0.4,0.1,0.7,0.1,1c0,0.3,0,0.6,0,0.9c0,0.5,0.1,0.8,0.1,0.8s0.2-0.2,0.5-0.6c0.1-0.2,0.3-0.4,0.5-0.7c0.2-0.3,0.3-0.6,0.5-1c0.2-0.4,0.3-0.8,0.4-1.3c0.1-0.5,0.2-1,0.3-1.5c0.1-0.5,0.1-1.1,0.1-1.6C43.3,18.7,43.2,18.1,43.1,17.6z"/><path fill="#FFB300" d="M44.1,19.8C44.1,19.3,44,19,44,19s-0.2,0.3-0.5,0.7c-0.3,0.5-0.6,1.1-1,1.9c-0.3,0.7-0.7,1.5-1.1,2.3c0-0.8,0-1.5-0.1-2.2c-0.1-0.6-0.2-1.1-0.3-1.6c-0.2-0.5-0.3-1-0.5-1.4c-0.3-0.9-0.7-1.5-1-2C39.2,16.2,39,16,39,16s-0.1,1.2-0.1,3c0,0.9-0.1,1.8-0.2,2.9c0,0.5-0.1,1-0.1,1.6c0,0.5-0.1,1.1-0.2,1.6c0,0.1,0,0.3,0,0.4c-0.1-0.9-0.4-1.8-0.8-2.4c-0.3-0.7-0.7-1.2-1-1.5C36.2,21.1,36,21,36,21s0,0.3,0,0.7c0,0.4,0,1-0.1,1.7c-0.1,1.3-0.3,3-0.5,4.6c-0.1,0.4-0.2,0.8-0.2,1.2c-0.1,0.4-0.2,0.8-0.2,1.2c-0.1,0.4-0.2,0.8-0.3,1.1c-0.1,0.4-0.2,0.7-0.2,1c-0.1,0.3-0.1,0.7-0.2,0.9c-0.1,0.3-0.1,0.5-0.2,0.8C34,34.7,34,35,34,35s0.2-0.1,0.6-0.4c0.4-0.3,0.9-0.6,1.4-1.2c0.2-0.3,0.5-0.6,0.8-1c0.2-0.4,0.5-0.7,0.7-1.1c0,0.3-0.1,0.6-0.1,0.9c-0.1,0.3-0.1,0.7-0.2,0.9C37,33.7,37,34,37,34c0.1-0.1,0.4,0,0.7,0.1c0,0.1-0.1,0.2-0.1,0.2c-0.1,0.3-0.2,0.6-0.3,0.9C37.1,35.7,37,36,37,36s0.3-0.1,0.7-0.4c0.2-0.2,0.5-0.3,0.8-0.6c0.3-0.2,0.6-0.5,0.9-0.9c0.3-0.3,0.6-0.7,1-1.1c0.3-0.4,0.6-0.9,0.9-1.4c0.6-1,1.1-2.1,1.5-3.2c0.4-1.1,0.8-2.3,1-3.4c0.2-1.1,0.3-2.1,0.4-3C44.2,21.1,44.2,20.4,44.1,19.8z"/><path fill="#FF9800" d="M41.4,30.4c-0.4,0.2-0.8,0.6-1.4,1c-0.8,0.6-1.7,1.4-2.6,2.3c0.1-0.3,0.3-0.6,0.4-0.9c0.3-0.9,0.4-1.7,0.5-2.4c0-0.7,0-1.3-0.1-1.7C38.1,28.2,38,28,38,28s-0.2,0.2-0.4,0.5c-0.2,0.3-0.6,0.8-1,1.3c-0.4,0.5-0.8,1.2-1.2,1.8c-0.1,0.1-0.1,0.2-0.2,0.3c0.2-0.6,0.2-1.3,0.2-1.9c0-0.8-0.2-1.6-0.4-2.2c-0.2-0.6-0.5-1.1-0.7-1.4C34.2,26.2,34,26,34,26s-0.1,0.2-0.2,0.6c-0.1,0.3-0.3,0.8-0.5,1.4c-0.2,0.5-0.3,1.1-0.5,1.8c-0.1,0.3-0.2,0.6-0.3,1c-0.1,0.3-0.2,0.6-0.3,0.8c-1.9,1.9-4.2,2.4-6.4,2.5c-1.2,0-2.3-0.2-3.3-0.5c0,0,0,0,0,0c0,0,0,0,0,0c-1.5-0.5-2.9-1.4-4.2-2.6c1.9,0.2,3.7-0.2,5.2-0.9l2.5-1.6l0,0c0.3-0.1,0.6-0.1,0.9,0c0.6-0.1,0.8-0.4,0.6-1c-0.3-0.4-0.8-0.8-1.3-1.1c-1.3-0.7-2.6-0.6-4,0.3c-1.3,0.7-2.5,0.6-3.8-0.1c-3.1-1.6-1.9-5.7,1.4-3.6c0.2-1-0.1-2.1-0.7-3.2c0,0,0,0,0,0c-2.9-5.3,0.4-9.6,1.5-10.3c-2,0.2-3.8,1.1-5.4,2.6C4.9,10.9,4,20.9,4,21l1.2-1.1c-0.4,1.1-0.7,2.2-0.8,3.4C4,27.2,5.1,31,7.7,34.8C11.7,39.9,18,43,24,43c6.8,0,11.2-2.5,14.1-5.7c0.2-0.2,0.4-0.4,0.6-0.6c0.6-0.7,1.2-1.4,1.7-2.2c0.5-0.7,0.8-1.5,1.1-2.2c0.2-0.7,0.4-1.3,0.5-1.7C42,30.3,42,30,42,30S41.8,30.1,41.4,30.4z"/><path fill="#EF6C00" d="M12,28c-0.2-7,4.3-6.4,6.6-5.6C17,22.1,16.3,23.6,17,25C16.7,25,13.6,24.7,12,28z M18.3,30.9c1.9,0.2,3.7-0.2,5.2-0.9l2.5-1.6l0,0c0.2-0.1,0.5-0.1,0.7,0l0,0c-2.9-1.7-6,1.9-12.8,0.8C15.6,30.5,18.3,30.9,18.3,30.9z M18.1,14.5c-0.2,1.5,0.1,3.3,1.1,5.2c0,0,0,0,0,0c0,0,0,0,0,0C20.6,18.9,22,18,22,18s2-2,0-2C20.1,16,18.8,15.2,18.1,14.5z M10.3,12.4C9.4,11.6,8,10,8,8c0,0-2.4,3.9-1.5,7C7.4,13.9,8.7,13,10.3,12.4z"/><path fill="#FFCC80" d="M19.2,19.7C19.2,19.7,19.2,19.7,19.2,19.7C19.2,19.7,19.2,19.7,19.2,19.7C20.6,18.9,22,18,22,18s0.2-0.2,0.4-0.4L22,17h-3.8C18.4,17.9,18.7,18.8,19.2,19.7z"/><path fill="#5D4037" d="M22,16c-0.3,0-0.6,0-0.9-0.1L21,16c0,0,0.8,1.3,1,2C22,18,24,16,22,16z"/></symbol>
    <symbol id="opera" viewBox="0 0 48 48"><path fill="#ff1744" d="M24,4C12.947,4,4,12.947,4,24s8.947,20,20,20s20-8.947,20-20S35.053,4,24,4z M24,39c-5.263,0-10-6.896-10-15S18.737,9,24,9s10,6.896,10,15S29.263,39,24,39z"/><path fill="#d50000" d="M36.564,8.445C34.413,6.972,31.89,6,29.263,6c-3.948,0-7.524,1.98-10.166,5.079C20.573,9.77,22.255,9,24,9c5.263,0,10,6.896,10,15s-4.737,15-10,15c-1.745,0-3.427-0.77-4.903-2.079C21.739,40.02,25.315,42,29.263,42c2.626,0,5.15-0.972,7.3-2.444C41.097,35.891,44,30.29,44,24C44,17.711,41.097,12.11,36.564,8.445z"/></symbol>
    <symbol id="yandex" viewBox="0 0 100 100"><circle cx="50" cy="50" r="35" fill="#e3e2e3"/><circle cx="50" cy="50" r="31" fill="#fff"/><path fill="#e85654" d="M68.532,34.477c-2.092-2.15-2.978-1.985-2.978-1.985L50,47.628L34.446,32.492 c0,0-0.886-0.165-2.978,1.985s-1.904,3.031-1.904,3.031L46.5,54.082V73.75c0,0,0.5,0.75,3.5,0.75s3.5-0.75,3.5-0.75V54.082 l16.936-16.573C70.436,37.509,70.625,36.627,68.532,34.477z"/><g><path fill="#1f212b" d="M50,86c-19.851,0-36-16.149-36-36s16.149-36,36-36s36,16.149,36,36S69.851,86,50,86z M50,16 c-18.748,0-34,15.252-34,34s15.252,34,34,34s34-15.252,34-34S68.748,16,50,16z"/><path fill="#1f212b" d="M65.5,24.227c-0.087,0-0.174-0.022-0.254-0.069c-0.638-0.376-1.3-0.734-1.969-1.066 c-0.247-0.123-0.348-0.423-0.226-0.671c0.124-0.247,0.426-0.347,0.671-0.226c0.689,0.343,1.373,0.714,2.031,1.102 c0.238,0.141,0.317,0.447,0.177,0.685C65.838,24.139,65.671,24.227,65.5,24.227z"/><path fill="#1f212b" d="M68.5,26.249c-0.106,0-0.213-0.033-0.304-0.103c-0.323-0.247-0.651-0.487-0.983-0.721 c-0.227-0.159-0.281-0.471-0.122-0.696s0.472-0.28,0.696-0.122c0.344,0.241,0.684,0.489,1.017,0.744 c0.22,0.168,0.261,0.481,0.094,0.701C68.799,26.182,68.65,26.249,68.5,26.249z"/><path fill="#1f212b" d="M50,81c-17.094,0-31-13.906-31-31s13.906-31,31-31c3.665,0,7.256,0.635,10.672,1.887 c0.26,0.096,0.393,0.383,0.298,0.642c-0.095,0.261-0.383,0.393-0.642,0.298C57.022,20.614,53.548,20,50,20 c-16.542,0-30,13.458-30,30s13.458,30,30,30s30-13.458,30-30c0-8.439-3.585-16.535-9.836-22.213 c-0.205-0.186-0.22-0.502-0.034-0.706c0.187-0.204,0.503-0.219,0.706-0.034C77.296,32.914,81,41.279,81,50 C81,67.094,67.094,81,50,81z"/><path fill="#1f212b" d="M50,75c-3.032,0-3.764-0.745-3.916-0.973C46.029,73.945,46,73.849,46,73.75V54.292L29.214,37.866 c-0.07-0.069-0.119-0.157-0.139-0.252c-0.058-0.269-0.081-1.313,2.034-3.485c2.114-2.172,3.163-2.174,3.428-2.128 c0.097,0.018,0.187,0.064,0.257,0.133L50,46.931l15.206-14.797c0.071-0.069,0.16-0.115,0.257-0.133 c0.266-0.047,1.313-0.045,3.428,2.128c2.115,2.173,2.092,3.217,2.034,3.485c-0.021,0.096-0.069,0.184-0.139,0.252L54,54.292V73.75 c0,0.099-0.029,0.195-0.084,0.277C53.764,74.255,53.032,75,50,75z M47,73.525C47.234,73.66,48.011,74,50,74 c1.956,0,2.74-0.329,3-0.484V54.082c0-0.134,0.054-0.263,0.15-0.357l16.776-16.417c-0.066-0.261-0.364-1.056-1.752-2.482l0,0 c-1.363-1.401-2.146-1.733-2.438-1.812L50.349,47.987c-0.194,0.188-0.503,0.188-0.697,0L34.258,33.007 c-0.26,0.074-1.045,0.393-2.432,1.818c-1.366,1.403-1.676,2.194-1.746,2.489l16.77,16.41c0.096,0.094,0.15,0.223,0.15,0.357V73.525 z"/></g></symbol>
    <symbol id="edge" viewBox="0 0 48 48"><path fill="#1e88e5" d="M40.69,35.42c-9.15,11.88-21.41,8.8-26.23,6.1 c-7.35-4.11-12.5-13.68-9.44-23.25c0.9-2.82,2.27-5.23,3.98-7.23c1.67,0.13,3.65,0.13,6-0.04c14-1,18,11,17,14 c-0.51,1.53-2.32,2.02-3.97,2.13c0.16-0.22,0.36-0.54,0.64-1.02c0.87-1.54,0.98-4.49-1.73-6.27c-2.61-1.7-5.43-0.65-6.88,1.28 c-1.45,1.92-0.88,4.81-0.37,6.09c2.2,5.52,6.26,6.95,9.02,7.78c2.76,0.83,6.86,0.71,9.05-0.19c2.18-0.91,2.8-1.43,3.22-0.97 C41.41,34.29,41.11,34.82,40.69,35.42z"/><path fill="#0d47a1" d="M40.732,35.42c-3.48,4.52-7.41,6.87-11.21,7.91 c-0.03,0.01-0.06,0.01-0.08,0.02c-2.2,0.42-3.95,0.08-5.85-0.29c-3.09-0.6-7.35-4.01-8.38-10.18c-0.88-5.31,1.63-9.81,5.59-12.54 c-0.26,0.24-0.49,0.5-0.7,0.78c-1.45,1.92-0.88,4.81-0.37,6.09c2.2,5.52,6.26,6.95,9.02,7.78c2.76,0.83,6.86,0.71,9.05-0.19 c2.18-0.91,2.8-1.43,3.22-0.97C41.452,34.29,41.152,34.82,40.732,35.42z"/><path fill="#00e5ff" d="M26.94,4.25c0.02,0.26,0.03,0.54,0.03,0.81c0,3.78-1.75,7.14-4.48,9.32 c-1.02-0.52-2.21-0.94-3.65-1.22c-4.07-0.78-10.63,1.1-13.3,5.77c-0.88,1.53-1.25,3.1-1.41,4.55c0.04-1.71,0.33-3.46,0.89-5.21 C8.31,8.01,17.86,3.05,26.94,4.25z"/><path fill="#00e676" d="M41.4,27.89c-2.76,2.78-6.27,2.86-8.67,2.73 c-2.41-0.12-3.59-0.82-4.69-1.5c-1.11-0.69-0.48-1.37-0.37-1.52c0.11-0.15,0.38-0.41,1-1.49c0.29-0.51,0.5-1.18,0.54-1.91 c4.62-3.43,7.96-8.49,9.16-14.34c2.92,2.95,4.3,6.21,4.79,7.61C44.04,19.99,44.71,24.56,41.4,27.89z"/><path fill="#1de9b6" d="M38.37,9.85v0.01c-1.2,5.85-4.54,10.91-9.16,14.34c0.03-0.42,0-0.87-0.1-1.32 c0-0.02-0.01-0.04-0.01-0.05c-0.25-1.47-0.99-3.33-2.22-4.77c-1.22-1.44-2.52-2.73-4.39-3.68c2.73-2.18,4.48-5.54,4.48-9.32 c0-0.27-0.01-0.55-0.03-0.81c0.4,0.05,0.79,0.11,1.19,0.19C32.74,5.33,36.04,7.49,38.37,9.85z"/></symbol>
    <symbol id="ie" viewBox="0 0 48 48"><path fill="#29B6F6" d="M29.4,8.4c1.1-0.7,5.3-3.3,8.8-3.3c6.6,0,3.5,7.7,3.5,7.7l0.2,0.2C45.7,3.3,38.4,4,38.4,4c-4.1,0-9.3,3.4-10.4,4.2c-1-0.1-2-0.2-3.1-0.2C9.7,8,7.4,19.6,7.1,23C7,23.5,7,23.8,7,23.8c0,0,0,0,0,0C7,23.9,7,24,7,24c0-0.1,0-0.2,0-0.3c6.1-8.7,14.5-12.2,14.5-12.2v0.6C9,20.6,6,33.2,5.3,35.7C4.5,38.3,5,44,10.3,44s10.4-4.2,10.4-4.2S21.9,40,25,40c13.2,0,16.7-12,16.7-12H30c0,0-1.2,4-5.4,4c-5.8,0-5.6-6-5.6-6h23c0.4-5.5-1.1-9.3-3.3-11.9C36.9,11.5,34,9.3,29.4,8.4z M20,39.6c0,0-7.8,4.9-11.4,1.5c-1.9-3.4,1.2-8.2,1.2-8.2S12.2,37.8,20,39.6z M18.8,10.3C18.8,10.3,18.7,10.3,18.8,10.3L18.8,10.3L18.8,10.3z M19,21c0,0-0.1-5,5.5-5c5.4,0,5.5,5,5.5,5H19z"/></symbol>
</svg>